<svg width="962" height="1266" viewBox="0 0 962 1266" fill="none" xmlns="http://www.w3.org/2000/svg">
<path d="M597.8 846H485.8L468.4 805.668V523.916L545.921 705.974L697.2 356H809.9L597.8 846Z" fill="#FF0000"/>
<path d="M205.2 881.8C162.6 881.8 123.3 874 87.3 858.4C51.9 842.2 22.8 819.4 2.37301e-05 790L81 692.8C98.4 715.6 116.7 733 135.9 745C155.1 756.4 175.8 762.1 198 762.1C257.4 762.1 287.1 727.3 287.1 657.7V358H65.7V241H432V649.6C432 727.6 412.8 785.8 374.4 824.2C336 862.6 279.6 881.8 205.2 881.8Z" fill="#E5E5E5"/>
<path d="M826.403 409.15C828.214 410.014 830.014 410.896 831.8 411.8C872.4 431.866 904.133 460.1 927 496.5C949.866 532.9 961.3 576.067 961.3 626C961.3 675.467 949.866 718.633 927 755.5C904.133 791.9 872.4 820.367 831.8 840.9C791.2 860.967 744.3 871 691.1 871H626.488L635.62 849.903L666.787 777.9H685.5C718.166 777.9 746.4 771.833 770.2 759.7C794.466 747.1 813.133 729.367 826.2 706.5C839.733 683.633 846.5 656.8 846.5 626C846.5 594.733 839.733 567.9 826.2 545.5C816.148 527.909 802.781 513.495 786.101 502.256L826.403 409.15ZM609.398 474.1H581.9V537.714L551.863 607.203L468.5 411.425V381H649.641L609.398 474.1Z" fill="#E5E5E5"/>
<rect x="468.4" y="242" width="493" height="114" fill="#FF0000"/>
</svg>
