<svg width="962" height="1064" viewBox="0 0 962 1064" fill="none" xmlns="http://www.w3.org/2000/svg">
<path d="M597.8 793H485.8L468.4 752.668V470.916L545.921 652.974L697.2 303H809.9L597.8 793Z" fill="#FF0000"/>
<path d="M205.2 828.8C162.6 828.8 123.3 821 87.3 805.4C51.9 789.2 22.8 766.4 2.37301e-05 737L81 639.8C98.4 662.6 116.7 680 135.9 692C155.1 703.4 175.8 709.1 198 709.1C257.4 709.1 287.1 674.3 287.1 604.7V305H65.7V188H432V596.6C432 674.6 412.8 732.8 374.4 771.2C336 809.6 279.6 828.8 205.2 828.8Z" fill="black"/>
<path d="M826.403 356.15C828.214 357.014 830.014 357.896 831.8 358.8C872.4 378.866 904.133 407.1 927 443.5C949.866 479.9 961.3 523.067 961.3 573C961.3 622.467 949.866 665.633 927 702.5C904.133 738.9 872.4 767.367 831.8 787.9C791.2 807.967 744.3 818 691.1 818H626.488L635.62 796.903L666.787 724.9H685.5C718.166 724.9 746.4 718.833 770.2 706.7C794.466 694.1 813.133 676.367 826.2 653.5C839.733 630.633 846.5 603.8 846.5 573C846.5 541.733 839.733 514.9 826.2 492.5C816.148 474.909 802.781 460.495 786.101 449.256L826.403 356.15ZM609.398 421.1H581.9V484.714L551.863 554.203L468.5 358.425V328H649.641L609.398 421.1Z" fill="black"/>
<rect x="468.4" y="189" width="493" height="114" fill="#FF0000"/>
</svg>
